<svg width="48" height="48" viewBox="0 0 48 48" fill="none" xmlns="http://www.w3.org/2000/svg">
<path d="M6.00115 38.0012H42.0011C42.3656 38 42.7229 37.8995 43.0345 37.7104C43.3461 37.5213 43.6002 37.2509 43.7695 36.9281C43.9388 36.6053 44.0169 36.2425 43.9954 35.8786C43.9738 35.5148 43.8534 35.1637 43.6471 34.8632L25.6471 8.86319C24.9011 7.78519 23.1051 7.78519 22.3571 8.86319L4.35715 34.8632C4.1488 35.1631 4.02662 35.5143 4.00388 35.8788C3.98114 36.2432 4.05872 36.6069 4.22818 36.9304C4.39764 37.2539 4.6525 37.5247 4.96508 37.7135C5.27765 37.9023 5.63599 38.0018 6.00115 38.0012Z" fill="#29B738"/>
</svg>
