<svg width="15" height="20" viewBox="0 0 15 20" fill="none" xmlns="http://www.w3.org/2000/svg">
<path d="M-0.000593185 18.9994L-0.000593185 0.999426C-2.18542e-05 0.817185 0.0502413 0.63855 0.144785 0.48275C0.239329 0.32695 0.374572 0.199884 0.535959 0.115231C0.697347 0.0305767 0.878767 -0.00845994 1.06069 0.00232315C1.24261 0.0131062 1.41815 0.0733 1.56841 0.176426L14.5684 9.17643C15.1074 9.54943 15.1074 10.4474 14.5684 10.8214L1.56841 19.8214C1.41846 19.9256 1.24284 19.9867 1.06061 19.9981C0.878386 20.0094 0.696529 19.9706 0.5348 19.8859C0.37307 19.8012 0.237653 19.6738 0.143263 19.5175C0.0488727 19.3612 -0.000880769 19.182 -0.000593185 18.9994Z" fill="#D9D9D9"/>
</svg>
