<svg width="48" height="48" viewBox="0 0 48 48" fill="none" xmlns="http://www.w3.org/2000/svg">
<path d="M9.03006 41.0223L9.03006 5.02229C9.03121 4.65781 9.13173 4.30054 9.32082 3.98894C9.50991 3.67734 9.78039 3.42321 10.1032 3.2539C10.4259 3.08459 10.7888 3.00652 11.1526 3.02808C11.5165 3.04965 11.8675 3.17004 12.1681 3.37629L38.1681 21.3763C39.2461 22.1223 39.2461 23.9183 38.1681 24.6663L12.1681 42.6663C11.8682 42.8746 11.5169 42.9968 11.1525 43.0196C10.788 43.0423 10.4243 42.9647 10.1008 42.7953C9.77739 42.6258 9.50656 42.3709 9.31778 42.0584C9.129 41.7458 9.02949 41.3875 9.03006 41.0223Z" fill="#D9D9D9"/>
</svg>
