<svg width="20" height="15" viewBox="0 0 20 15" fill="none" xmlns="http://www.w3.org/2000/svg">
<path d="M1.00057 -0.000593185H19.0006C19.1828 -2.18542e-05 19.3614 0.0502413 19.5173 0.144785C19.6731 0.239329 19.8001 0.374572 19.8848 0.535959C19.9694 0.697347 20.0085 0.878767 19.9977 1.06069C19.9869 1.24261 19.9267 1.41815 19.8236 1.56841L10.8236 14.5684C10.4506 15.1074 9.55257 15.1074 9.17857 14.5684L0.178574 1.56841C0.0743986 1.41846 0.0133079 1.24284 0.00193892 1.06061C-0.00943004 0.878386 0.0293576 0.696529 0.114088 0.5348C0.198818 0.37307 0.32625 0.237653 0.482538 0.143263C0.638826 0.0488727 0.817994 -0.000880769 1.00057 -0.000593185Z" fill="#E50D0D"/>
</svg>
