<svg width="48" height="48" viewBox="0 0 48 48" fill="none" xmlns="http://www.w3.org/2000/svg">
<path d="M6.00115 8.0535H42.0011C42.3656 8.05464 42.7229 8.15517 43.0345 8.34426C43.3461 8.53334 43.6002 8.80383 43.7695 9.12661C43.9388 9.44938 44.0169 9.81222 43.9954 10.1761C43.9738 10.5399 43.8534 10.891 43.6471 11.1915L25.6471 37.1915C24.9011 38.2695 23.1051 38.2695 22.3571 37.1915L4.35715 11.1915C4.1488 10.8916 4.02662 10.5404 4.00388 10.1759C3.98114 9.81146 4.05872 9.44775 4.22818 9.12429C4.39764 8.80083 4.6525 8.52999 4.96508 8.34121C5.27765 8.15243 5.63599 8.05293 6.00115 8.0535Z" fill="#E50D0D"/>
</svg>
